<svg xmlns="http://www.w3.org/2000/svg" xmlns:xlink="http://www.w3.org/1999/xlink" viewBox="0 0 150 150"><defs><style>.a{clip-path:url(#b);}.b,.c{fill:#fff;}.b{opacity:0.004;}.c{stroke:rgba(0,0,0,0);}</style><clipPath id="b"><rect width="150" height="150"/></clipPath></defs><g id="a" class="a"><rect class="b" width="150" height="150"/><path class="c" d="M-3927.916-6984.939a19.94,19.94,0,0,1,19.94-19.94,19.94,19.94,0,0,1,19.94,19.94,19.941,19.941,0,0,1-19.94,19.94A19.941,19.941,0,0,1-3927.916-6984.939Zm-49.948,18.365a55.631,55.631,0,0,1-13.333-4.371,50.461,50.461,0,0,1-10.585-6.766,39.231,39.231,0,0,1-7.662-8.639,41.2,41.2,0,0,1-4.739-9.992,40.279,40.279,0,0,1-1.816-10.825,4.451,4.451,0,0,1,1.152-3.123,3.623,3.623,0,0,1,2.745-1.248h23.563a6.439,6.439,0,0,1,3.455.832,12.145,12.145,0,0,1,2.925,2.915,19.055,19.055,0,0,0,2.945,4.553,20.9,20.9,0,0,0,4.23,3.669,18.162,18.162,0,0,0,5.691,2.419,30.667,30.667,0,0,0,7.33.807,37.579,37.579,0,0,0,8.46-.859,18.979,18.979,0,0,0,6.246-2.575,11.65,11.65,0,0,0,3.852-4.087,11.146,11.146,0,0,0,1.286-5.386,11.448,11.448,0,0,0-.664-3.982,9.393,9.393,0,0,0-1.993-3.2c-1.764-1.866-4.627-3.546-8.505-5a161.97,161.97,0,0,0-16.831-4.893,93.769,93.769,0,0,1-18.735-6.3,58.287,58.287,0,0,1-7.341-4.125,43.616,43.616,0,0,1-5.991-4.775,31.421,31.421,0,0,1-4.651-5.646,34.067,34.067,0,0,1-3.321-6.741,42.175,42.175,0,0,1-1.993-7.832,57.282,57.282,0,0,1-.664-8.926,47.557,47.557,0,0,1,1.527-12.2,41.325,41.325,0,0,1,4.585-10.8,40.072,40.072,0,0,1,7.4-8.977,44.426,44.426,0,0,1,9.966-6.741,51.372,51.372,0,0,1,12.158-4.214A66.58,66.58,0,0,1-3963.2-7115a63.767,63.767,0,0,1,14.549,1.587,48.5,48.5,0,0,1,12.469,4.76,54.862,54.862,0,0,1,10.1,7.13,43.524,43.524,0,0,1,7.442,8.692,44.127,44.127,0,0,1,4.671,9.392,31.985,31.985,0,0,1,1.795,9.239,5.1,5.1,0,0,1-1.062,3.227,3.271,3.271,0,0,1-2.659,1.352h-24.8a6.435,6.435,0,0,1-3.455-.936,7.71,7.71,0,0,1-2.57-2.811,11.134,11.134,0,0,0-1.9-4.034,14.892,14.892,0,0,0-3.589-3.357,16.594,16.594,0,0,0-4.96-2.264,22.815,22.815,0,0,0-6.023-.753,25.438,25.438,0,0,0-6.6.78,14.071,14.071,0,0,0-4.916,2.341,9.866,9.866,0,0,0-3.057,3.852,13,13,0,0,0-1.02,5.309,10.851,10.851,0,0,0,1.33,5.385,11.79,11.79,0,0,0,3.985,4.085,37.319,37.319,0,0,0,7.618,3.462c3.292,1.157,7.4,2.337,12.226,3.512a138.475,138.475,0,0,1,14.948,3.982,73.18,73.18,0,0,1,11.539,4.866,40.125,40.125,0,0,1,8.548,6.089,31.936,31.936,0,0,1,5.98,7.649,34.8,34.8,0,0,1,3.418,9.094,53.392,53.392,0,0,1,1.268,11.146h-.039a27.13,27.13,0,0,0-10.619,2.143,27.182,27.182,0,0,0-8.671,5.848,27.142,27.142,0,0,0-5.846,8.671,27.093,27.093,0,0,0-2.145,10.619,27.439,27.439,0,0,0,.9,6.97,27.216,27.216,0,0,0,2.545,6.3c-.712.361-1.439.708-2.157,1.032a60.267,60.267,0,0,1-13.11,4.137,77.318,77.318,0,0,1-14.883,1.378A81.779,81.779,0,0,1-3977.864-6966.574Z" transform="translate(4037.095 7115)"/></g></svg>