<svg xmlns="http://www.w3.org/2000/svg" viewBox="0 0 180 181"><defs><style>.a,.b{fill:#232432;}.a{opacity:0.004;}.b{stroke:rgba(0,0,0,0);}</style></defs><g transform="translate(-2066 -7149.5)"><rect class="a" width="180" height="180" transform="translate(2066 7150)"/><path class="b" d="M64.843,179.86a98.125,98.125,0,0,1-19.081-1.749,66.7,66.7,0,0,1-16-5.246,60.529,60.529,0,0,1-12.7-8.119,47.125,47.125,0,0,1-9.2-10.367,49.4,49.4,0,0,1-5.687-11.99A48.31,48.31,0,0,1,0,129.4a5.343,5.343,0,0,1,1.382-3.748,4.35,4.35,0,0,1,3.295-1.5H32.953a7.747,7.747,0,0,1,4.146,1,14.622,14.622,0,0,1,3.508,3.5,22.85,22.85,0,0,0,3.534,5.465,25.138,25.138,0,0,0,5.076,4.4,21.818,21.818,0,0,0,6.83,2.9,36.833,36.833,0,0,0,8.8.968A45.118,45.118,0,0,0,75,141.359a22.75,22.75,0,0,0,7.494-3.091,13.961,13.961,0,0,0,4.624-4.9,13.4,13.4,0,0,0,1.541-6.464,13.733,13.733,0,0,0-.8-4.777,11.233,11.233,0,0,0-2.392-3.84c-2.117-2.239-5.55-4.256-10.2-6a194.313,194.313,0,0,0-20.2-5.871A112.448,112.448,0,0,1,32.581,98.86a69.67,69.67,0,0,1-8.81-4.949,52.473,52.473,0,0,1-7.188-5.73A37.631,37.631,0,0,1,11,81.406a40.751,40.751,0,0,1-3.986-8.088,50.668,50.668,0,0,1-2.392-9.4,68.731,68.731,0,0,1-.8-10.711A57.076,57.076,0,0,1,5.66,38.564a49.587,49.587,0,0,1,5.5-12.959,48.142,48.142,0,0,1,8.875-10.773A53.22,53.22,0,0,1,32,6.745a61.689,61.689,0,0,1,14.59-5.058A80.021,80.021,0,0,1,63.355,0a76.565,76.565,0,0,1,17.46,1.9A58.185,58.185,0,0,1,95.777,7.619,65.768,65.768,0,0,1,107.9,16.175a52.246,52.246,0,0,1,8.93,10.429,53.032,53.032,0,0,1,5.607,11.272,38.384,38.384,0,0,1,2.153,11.085,6.109,6.109,0,0,1-1.276,3.872,3.919,3.919,0,0,1-3.189,1.623H90.356a7.718,7.718,0,0,1-4.146-1.124,9.236,9.236,0,0,1-3.082-3.373,13.387,13.387,0,0,0-2.286-4.839,17.814,17.814,0,0,0-4.305-4.028,19.874,19.874,0,0,0-5.953-2.717,27.353,27.353,0,0,0-7.228-.906,30.5,30.5,0,0,0-7.919.937,16.893,16.893,0,0,0-5.9,2.81,11.837,11.837,0,0,0-3.668,4.622,15.614,15.614,0,0,0-1.223,6.37,13.034,13.034,0,0,0,1.595,6.463,14.162,14.162,0,0,0,4.783,4.9,44.84,44.84,0,0,0,9.142,4.153c3.95,1.388,8.886,2.807,14.669,4.215a166.321,166.321,0,0,1,17.938,4.778,88.177,88.177,0,0,1,13.846,5.839,48.239,48.239,0,0,1,10.258,7.307,38.3,38.3,0,0,1,7.175,9.181,41.779,41.779,0,0,1,4.1,10.913,64.1,64.1,0,0,1,1.521,13.374h-.048A32.732,32.732,0,0,0,101.023,172c-.855.433-1.726.85-2.588,1.239A72.248,72.248,0,0,1,82.7,178.2,92.715,92.715,0,0,1,64.843,179.86Z" transform="translate(2091.313 7150)"/><ellipse class="b" cx="23.927" cy="23.928" rx="23.927" ry="23.928" transform="translate(2197.015 7282.144)"/></g></svg>